<?xml version="1.0" encoding="iso-8859-1"?>
<!-- Uploaded to: SVG Repo, www.svgrepo.com, Generator: SVG Repo Mixer Tools -->
<svg fill="#000000" height="800px" width="800px" version="1.1" id="Layer_1" xmlns="http://www.w3.org/2000/svg" xmlns:xlink="http://www.w3.org/1999/xlink" 
	 viewBox="0 0 512.004 512.004" xml:space="preserve">
<g>
	<g>
		<path d="M476.552,281.09c-17.358-16.349-41.546-27.461-68.11-31.285c-8.075-1.163-17.081-2.473-26.794-3.887
			c-46.974-6.835-109.494-15.931-163.953-22.523l-27.835-59.044h45.038c5.632,0,10.199-4.566,10.199-10.199
			c0-25.319-20.597-45.916-45.917-45.916h-78.824c-5.632,0-10.199,4.566-10.199,10.199c0,25.319,20.597,45.916,45.917,45.916h11.236
			l26.525,56.264c-20.312-2.261-38.823-4.022-54.078-4.988c-33.265-2.104-65.463,9.759-90.667,33.415
			c-27.343,25.664-43.025,61.971-43.025,99.61c0,37.639,15.681,73.945,43.025,99.61c5.201,4.881,10.701,9.258,16.446,13.116
			l-33.213,33.214c-3.983,3.983-3.983,10.441,0,14.424c1.992,1.992,4.602,2.987,7.212,2.987s5.22-0.996,7.212-2.987l37.357-37.358
			c15.142,6.741,31.427,10.259,48.1,10.259c2.509,0,5.028-0.08,7.552-0.24c53.992-3.422,150.232-17.242,220.504-27.332
			c10.254-1.473,20.175-2.897,29.349-4.2l58.872,58.871c1.992,1.992,4.602,2.987,7.212,2.987s5.22-0.996,7.212-2.987
			c3.983-3.983,3.983-10.441,0-14.424l-48.137-48.136c24.035-4.462,45.796-15.028,61.806-30.147
			c19.21-18.143,29.364-41.537,29.364-67.656C505.941,322.562,495.778,299.199,476.552,281.09z M156.074,143.951
			c-10.446,0.001-19.448-6.309-23.391-15.318h66.497c10.446,0,19.447,6.31,23.391,15.318H156.074z M405.593,427.299
			c-13.648,1.886-30.447,4.298-48.231,6.852c-69.933,10.042-165.713,23.795-218.896,27.166c-27.58,1.753-54.364-8.172-75.414-27.93
			c-23.251-21.823-36.586-52.71-36.586-84.737c0-32.027,13.335-62.913,36.586-84.737c19.465-18.271,43.829-28.128,69.196-28.128
			c2.065,0,4.143,0.065,6.219,0.197c58.913,3.734,168.037,19.612,240.247,30.12c9.723,1.415,18.739,2.726,26.824,3.891
			c39.823,5.734,80.005,32.28,80.005,78.657C485.542,395.347,445.389,421.799,405.593,427.299z"/>
	</g>
</g>
<g>
	<g>
		<path d="M141.816,265.934c-45.61,0-82.716,37.106-82.716,82.716s37.106,82.716,82.716,82.716c45.61,0,82.717-37.106,82.717-82.716
			C224.533,303.042,187.426,265.934,141.816,265.934z M141.816,410.968c-34.361,0-62.318-27.955-62.318-62.318
			c0-34.361,27.955-62.318,62.318-62.318c34.362,0,62.319,27.955,62.319,62.318S176.179,410.968,141.816,410.968z"/>
	</g>
</g>
<g>
	<g>
		<path d="M430.367,225.932l-1.566-6.12c-1.395-5.456-6.951-8.746-12.408-7.353c-5.458,1.396-8.749,6.952-7.353,12.409l1.566,6.12
			c1.179,4.609,5.325,7.673,9.874,7.673c0.836,0,1.687-0.104,2.535-0.32C428.472,236.945,431.763,231.39,430.367,225.932z"/>
	</g>
</g>
<g>
	<g>
		<path d="M471.825,46.476l-10.824-29.224c-5.062-13.664-20.3-20.667-33.969-15.607c-6.621,2.452-11.891,7.336-14.84,13.752
			c-2.949,6.416-3.221,13.597-0.769,20.217l1.464,3.95l-45.984,16.024c-13.763,4.797-21.058,19.897-16.263,33.661
			c3.698,10.612,13.729,17.742,24.962,17.742c1.082,0,2.157-0.09,3.227-0.221l22.384,87.502c1.179,4.61,5.326,7.674,9.875,7.674
			c0.835,0,1.687-0.104,2.534-0.32c5.458-1.396,8.749-6.952,7.354-12.409l-22.662-88.585l57.422-20.011
			c6.661-2.321,12.206-7.313,15.212-13.694C473.955,60.544,474.275,53.091,471.825,46.476z M452.496,58.23
			c-0.686,1.458-1.952,2.597-3.473,3.126L377.59,86.25c-0.649,0.226-1.318,0.341-1.988,0.341c-2.564,0-4.854-1.629-5.698-4.054
			c-1.096-3.14,0.57-6.589,3.713-7.684l55.803-19.446c2.587-0.902,4.701-2.805,5.87-5.283c1.168-2.478,1.29-5.321,0.339-7.89
			l-5.075-13.702c-0.56-1.512-0.497-3.151,0.175-4.616c0.673-1.465,1.877-2.579,3.386-3.139c0.689-0.255,1.396-0.376,2.091-0.376
			c2.455,0,4.767,1.507,5.668,3.938l10.825,29.224C453.256,55.07,453.184,56.772,452.496,58.23z"/>
	</g>
</g>
<g>
	<g>
		<path d="M397.249,371.784h-22.292l-45.177-45.177c-3.984-3.983-10.44-3.983-14.425,0c-3.983,3.983-3.983,10.441,0,14.425
			l30.752,30.752h-1.893c-5.632,0-10.199,4.566-10.199,10.199s4.567,10.199,10.199,10.199h53.034
			c5.632,0,10.199-4.566,10.199-10.199S402.881,371.784,397.249,371.784z"/>
	</g>
</g>
</svg>